<?xml version="1.0" encoding="UTF-8" standalone="no"?>
<!-- Created with Inkscape (http://www.inkscape.org/) -->

<svg
   xmlns:dc="http://purl.org/dc/elements/1.1/"
   xmlns:cc="http://creativecommons.org/ns#"
   xmlns:rdf="http://www.w3.org/1999/02/22-rdf-syntax-ns#"
   xmlns:svg="http://www.w3.org/2000/svg"
   xmlns="http://www.w3.org/2000/svg"
   xmlns:sodipodi="http://sodipodi.sourceforge.net/DTD/sodipodi-0.dtd"
   xmlns:inkscape="http://www.inkscape.org/namespaces/inkscape"
   width="101.26015mm"
   height="76.513435mm"
   viewBox="0 0 358.79582 271.1106"
   id="svg2"
   version="1.1"
   inkscape:version="0.91 r13725"
   sodipodi:docname="The News Journal.svg">
  <title
     id="title10466">The News Journal</title>
  <defs
     id="defs4">
    <clipPath
       id="clipPath3350"
       clipPathUnits="userSpaceOnUse">
      <path
         inkscape:connector-curvature="0"
         id="path3352"
         d="m 0,-0.18 792,0 0,1575.36 -792,0 L 0,-0.18 Z" />
    </clipPath>
    <clipPath
       id="clipPath3358"
       clipPathUnits="userSpaceOnUse">
      <path
         style="clip-rule:evenodd"
         inkscape:connector-curvature="0"
         id="path3360"
         d="m 0,-2762250 0,5556250 2794000,0 0,-5556250 -2794000,0 z" />
    </clipPath>
    <clipPath
       id="clipPath3366"
       clipPathUnits="userSpaceOnUse">
      <path
         style="clip-rule:evenodd"
         inkscape:connector-curvature="0"
         id="path3368"
         d="m 126978,18120 0,976703 1615620,0 0,-976703 -1615620,0 z" />
    </clipPath>
    <clipPath
       id="clipPath3376"
       clipPathUnits="userSpaceOnUse">
      <path
         style="clip-rule:evenodd"
         inkscape:connector-curvature="0"
         id="path3378"
         d="m 126870,-1075498 0,976703 1615727,0 0,-976703 -1615727,0 z" />
    </clipPath>
    <clipPath
       id="clipPath3548"
       clipPathUnits="userSpaceOnUse">
      <path
         style="clip-rule:evenodd"
         inkscape:connector-curvature="0"
         id="path3550"
         d="m 1869735,1178772 0,517050 797268,0 0,-517050 -797268,0 z" />
    </clipPath>
    <clipPath
       id="clipPath3594"
       clipPathUnits="userSpaceOnUse">
      <path
         inkscape:connector-curvature="0"
         id="path3596"
         d="m 0,2.83e-4 74.99905,0 0,7.999087 L 0,7.99937 0,2.83e-4 Z" />
    </clipPath>
    <clipPath
       id="clipPath3644"
       clipPathUnits="userSpaceOnUse">
      <path
         inkscape:connector-curvature="0"
         id="path3646"
         d="m 0,2.023013 130.0015,0 0,70.955727 L 0,72.97874 0,2.023013 Z" />
    </clipPath>
    <clipPath
       id="clipPath3888"
       clipPathUnits="userSpaceOnUse">
      <path
         inkscape:connector-curvature="0"
         id="path3890"
         d="M 0,0 108,0 108,108 0,108 0,0 Z" />
    </clipPath>
    <clipPath
       id="clipPath3910"
       clipPathUnits="userSpaceOnUse">
      <path
         inkscape:connector-curvature="0"
         id="path3912"
         d="m 269.852,394.789 c 5.457,-7.84 8.187,-11.391 13.648,-17.879 6.18,7.59 9.281,10.981 15.461,17.168 -6.231,6.391 -9.359,9.891 -15.59,17.742 -5.41,-6.191 -8.109,-9.57 -13.519,-17.031" />
    </clipPath>
    <clipPath
       id="clipPath3918"
       clipPathUnits="userSpaceOnUse">
      <path
         inkscape:connector-curvature="0"
         id="path3920"
         d="m 269.852,376.91 29.109,0 0,34.91 -29.109,0 0,-34.91 z" />
    </clipPath>
    <clipPath
       id="clipPath3928"
       clipPathUnits="userSpaceOnUse">
      <path
         inkscape:connector-curvature="0"
         id="path3930"
         d="m 269.879,347.359 c 5.531,-7.488 8.293,-10.839 13.82,-16.879 6.25,8.372 9.379,12.168 15.629,19.149 -6.308,5.812 -9.476,9.051 -15.777,16.41 -5.473,-6.867 -8.199,-10.57 -13.672,-18.68" />
    </clipPath>
    <clipPath
       id="clipPath3936"
       clipPathUnits="userSpaceOnUse">
      <path
         inkscape:connector-curvature="0"
         id="path3938"
         d="m 269.879,330.48 29.449,0 0,35.559 -29.449,0 0,-35.559 z" />
    </clipPath>
    <clipPath
       id="clipPath3946"
       clipPathUnits="userSpaceOnUse">
      <path
         inkscape:connector-curvature="0"
         id="path3948"
         d="m 288.129,371.602 c 6.59,-7.321 9.883,-10.532 16.461,-16.25 7.449,7.847 11.18,11.308 18.601,17.578 -7.562,5.539 -11.363,8.66 -18.953,15.922 -6.437,-6.211 -9.66,-9.622 -16.109,-17.25" />
    </clipPath>
    <clipPath
       id="clipPath3954"
       clipPathUnits="userSpaceOnUse">
      <path
         inkscape:connector-curvature="0"
         id="path3956"
         d="m 288.129,355.352 35.062,0 0,33.5 -35.062,0 0,-33.5 z" />
    </clipPath>
    <clipPath
       id="clipPath3964"
       clipPathUnits="userSpaceOnUse">
      <path
         inkscape:connector-curvature="0"
         id="path3966"
         d="m 309.66,393.879 c 7.949,-7.25 11.91,-10.348 19.809,-15.84 8.992,7.031 13.472,10.012 22.359,15.242 -9.117,5.367 -13.726,8.438 -22.957,15.719 -7.66,-5.262 -11.5,-8.23 -19.211,-15.121" />
    </clipPath>
    <clipPath
       id="clipPath3972"
       clipPathUnits="userSpaceOnUse">
      <path
         inkscape:connector-curvature="0"
         id="path3974"
         d="m 309.66,378.039 42.168,0 0,30.961 -42.168,0 0,-30.961 z" />
    </clipPath>
    <clipPath
       id="clipPath3982"
       clipPathUnits="userSpaceOnUse">
      <path
         inkscape:connector-curvature="0"
         id="path3984"
         d="m 287.891,416.828 c 6.507,-7.859 9.757,-11.359 16.25,-17.726 7.359,6.859 11.031,9.839 18.347,15.128 -7.449,6.34 -11.187,9.848 -18.679,17.801 -6.36,-5.383 -9.547,-8.371 -15.918,-15.203" />
    </clipPath>
    <clipPath
       id="clipPath3990"
       clipPathUnits="userSpaceOnUse">
      <path
         inkscape:connector-curvature="0"
         id="path3992"
         d="m 287.891,399.102 34.597,0 0,32.929 -34.597,0 0,-32.929 z" />
    </clipPath>
    <clipPath
       id="clipPath4000"
       clipPathUnits="userSpaceOnUse">
      <path
         inkscape:connector-curvature="0"
         id="path4002"
         d="m 269.801,441.32 c 5.398,-8.172 8.121,-11.91 13.527,-18.82 6.113,6.828 9.152,9.84 15.25,15.25 -6.148,6.949 -9.226,10.719 -15.387,19.02 -5.351,-5.551 -8.043,-8.61 -13.39,-15.45" />
    </clipPath>
    <clipPath
       id="clipPath4008"
       clipPathUnits="userSpaceOnUse">
      <path
         inkscape:connector-curvature="0"
         id="path4010"
         d="m 269.801,422.5 28.777,0 0,34.27 -28.777,0 0,-34.27 z" />
    </clipPath>
    <clipPath
       id="clipPath4018"
       clipPathUnits="userSpaceOnUse">
      <path
         inkscape:connector-curvature="0"
         id="path4020"
         d="m 266.719,448.359 c 4.66,6.18 7.23,9.231 12.133,14.551 -4.903,6.918 -7.473,10.789 -12.133,18.371 l 0,-32.922 z" />
    </clipPath>
    <clipPath
       id="clipPath4026"
       clipPathUnits="userSpaceOnUse">
      <path
         inkscape:connector-curvature="0"
         id="path4028"
         d="m 266.719,448.359 12.133,0 0,32.922 -12.133,0 0,-32.922 z" />
    </clipPath>
    <clipPath
       id="clipPath4036"
       clipPathUnits="userSpaceOnUse">
      <path
         inkscape:connector-curvature="0"
         id="path4038"
         d="m 174.301,393.66 c 0,0 47.371,-24.871 85.258,-88.219 l 0,175.84 c 0,0 -38.481,-60.98 -85.258,-87.621" />
    </clipPath>
    <clipPath
       id="clipPath4044"
       clipPathUnits="userSpaceOnUse">
      <path
         inkscape:connector-curvature="0"
         id="path4046"
         d="m 174.301,305.441 85.258,0 0,175.84 -85.258,0 0,-175.84 z" />
    </clipPath>
    <clipPath
       id="clipPath4110"
       clipPathUnits="userSpaceOnUse">
      <path
         inkscape:connector-curvature="0"
         id="path4112"
         d="m 266.75,353.988 c 4.738,7.231 7.371,10.903 12.371,17.383 -5,6.199 -7.633,9.738 -12.371,16.777 l 0,-34.16 z" />
    </clipPath>
    <clipPath
       id="clipPath4118"
       clipPathUnits="userSpaceOnUse">
      <path
         inkscape:connector-curvature="0"
         id="path4120"
         d="m 266.75,353.988 12.371,0 0,34.16 -12.371,0 0,-34.16 z" />
    </clipPath>
    <clipPath
       id="clipPath4128"
       clipPathUnits="userSpaceOnUse">
      <path
         inkscape:connector-curvature="0"
         id="path4130"
         d="m 266.969,305.559 c 4.672,7.601 7.312,11.55 12.281,18.55 -4.969,5.743 -7.609,9.063 -12.281,15.661 l 0,-34.211 z" />
    </clipPath>
    <clipPath
       id="clipPath4136"
       clipPathUnits="userSpaceOnUse">
      <path
         inkscape:connector-curvature="0"
         id="path4138"
         d="m 266.969,305.559 12.281,0 0,34.211 -12.281,0 0,-34.211 z" />
    </clipPath>
    <clipPath
       id="clipPath4146"
       clipPathUnits="userSpaceOnUse">
      <path
         inkscape:connector-curvature="0"
         id="path4148"
         d="m 266.969,401.891 c 4.551,6.468 7.152,9.808 12.011,15.589 -4.859,6.469 -7.46,10.168 -12.011,17.25 l 0,-32.839 z" />
    </clipPath>
    <clipPath
       id="clipPath4154"
       clipPathUnits="userSpaceOnUse">
      <path
         inkscape:connector-curvature="0"
         id="path4156"
         d="m 266.969,401.891 12.011,0 0,32.839 -12.011,0 0,-32.839 z" />
    </clipPath>
    <clipPath
       id="clipPath4276"
       clipPathUnits="userSpaceOnUse">
      <path
         inkscape:connector-curvature="0"
         id="path4278"
         d="m 0,3.13937 286.9994,0 0,216.86033 L 0,219.9997 0,3.13937 Z" />
    </clipPath>
    <clipPath
       id="clipPath4340"
       clipPathUnits="userSpaceOnUse">
      <path
         style="clip-rule:evenodd"
         inkscape:connector-curvature="0"
         id="path4342"
         d="m 578561,-2380550 0,623681 776110,0 0,-623681 -776110,0 z" />
    </clipPath>
    <clipPath
       id="clipPath4422"
       clipPathUnits="userSpaceOnUse">
      <path
         inkscape:connector-curvature="0"
         id="path4424"
         d="m 0,0 108,0 0,65.99991 -108,0 L 0,0 Z" />
    </clipPath>
    <clipPath
       id="clipPath4432"
       clipPathUnits="userSpaceOnUse">
      <path
         inkscape:connector-curvature="0"
         id="path4434"
         d="M 0,0 108,0 108,66 0,66 0,0 Z" />
    </clipPath>
    <clipPath
       id="clipPath4448"
       clipPathUnits="userSpaceOnUse">
      <path
         inkscape:connector-curvature="0"
         id="path4450"
         d="M 0,0 108,0 108,66 0,66 0,0 Z" />
    </clipPath>
    <clipPath
       id="clipPath4460"
       clipPathUnits="userSpaceOnUse">
      <path
         inkscape:connector-curvature="0"
         id="path4462"
         d="m 0,20.281 51.75,0 0,40.001 -51.75,0 0,-40.001 z" />
    </clipPath>
    <clipPath
       id="clipPath4472"
       clipPathUnits="userSpaceOnUse">
      <path
         inkscape:connector-curvature="0"
         id="path4474"
         d="m 56.25,20.281 51.75,0 0,40.001 -51.75,0 0,-40.001 z" />
    </clipPath>
    <clipPath
       id="clipPath4556"
       clipPathUnits="userSpaceOnUse">
      <path
         inkscape:connector-curvature="0"
         id="path4558"
         d="m 9.5407,8.316567 109.7414,0 0,29.999343 -109.7414,0 0,-29.999343 z" />
    </clipPath>
    <clipPath
       id="clipPath4566"
       clipPathUnits="userSpaceOnUse">
      <path
         inkscape:connector-curvature="0"
         id="path4568"
         d="m 0.016,9.281 1192.75,0 0,381.441 -1192.75,0 0,-381.441 z" />
    </clipPath>
    <clipPath
       id="clipPath4620"
       clipPathUnits="userSpaceOnUse">
      <path
         style="clip-rule:evenodd"
         inkscape:connector-curvature="0"
         id="path4622"
         d="m 1202970,1817298 0,765035 1466641,0 0,-765035 -1466641,0 z" />
    </clipPath>
    <clipPath
       id="clipPath4648"
       clipPathUnits="userSpaceOnUse">
      <path
         inkscape:connector-curvature="0"
         id="path4650"
         d="M 0,0 234,0 234,252 0,252 0,0 Z" />
    </clipPath>
    <clipPath
       id="clipPath4672"
       clipPathUnits="userSpaceOnUse">
      <path
         inkscape:connector-curvature="0"
         id="path4674"
         d="m 2227.05,1591.16 -52.65,0 45.46,71.79 0,20.14 0,422.87 7.19,0 0,-514.8" />
    </clipPath>
    <clipPath
       id="clipPath4684"
       clipPathUnits="userSpaceOnUse">
      <path
         inkscape:connector-curvature="0"
         id="path4686"
         d="m 2159.41,1591.16 -1145.56,0 0,514.8 82.24,0 97.5,-189.48 -130.47,-253.53 1096.29,0 0,-71.79" />
    </clipPath>
    <clipPath
       id="clipPath4696"
       clipPathUnits="userSpaceOnUse">
      <path
         inkscape:connector-curvature="0"
         id="path4698"
         d="m 2174.4,1591.16 -14.4,0 0,514.8 59.86,0 0,-422.87 0,-20.14 -45.46,-71.79" />
    </clipPath>
    <clipPath
       id="clipPath4708"
       clipPathUnits="userSpaceOnUse">
      <path
         inkscape:connector-curvature="0"
         id="path4710"
         d="m 2160,1591.16 -0.59,0 0,71.79 -1096.29,0 130.47,253.53 -97.5,189.48 1063.91,0 0,-514.8" />
    </clipPath>
    <clipPath
       id="clipPath4804"
       clipPathUnits="userSpaceOnUse">
      <path
         inkscape:connector-curvature="0"
         id="path4806"
         d="m 179.602,148.551 908.93,0 0,100.648 -908.93,0 0,-100.648 z" />
    </clipPath>
  </defs>
  <sodipodi:namedview
     id="base"
     pagecolor="#ffffff"
     bordercolor="#666666"
     borderopacity="1.0"
     inkscape:pageopacity="0.0"
     inkscape:pageshadow="2"
     inkscape:zoom="1.3831784"
     inkscape:cx="174.77221"
     inkscape:cy="149.82806"
     inkscape:document-units="px"
     inkscape:current-layer="layer1"
     showgrid="false"
     inkscape:window-width="1366"
     inkscape:window-height="705"
     inkscape:window-x="-8"
     inkscape:window-y="-8"
     inkscape:window-maximized="1"
     fit-margin-top="0"
     fit-margin-left="0"
     fit-margin-right="0"
     fit-margin-bottom="0" />
  <metadata
     id="metadata7">
    <rdf:RDF>
      <cc:Work
         rdf:about="">
        <dc:format>image/svg+xml</dc:format>
        <dc:type
           rdf:resource="http://purl.org/dc/dcmitype/StillImage" />
        <dc:title>The News Journal</dc:title>
      </cc:Work>
    </rdf:RDF>
  </metadata>
  <g
     inkscape:label="Layer 1"
     inkscape:groupmode="layer"
     id="layer1"
     transform="translate(75.655411,376.8359)">
    <g
       transform="matrix(282.56672,0,0,-188.52348,542.00787,123.13925)"
       id="g3552" />
    <g
       clip-path="url(#clipPath4276)"
       id="g4274"
       transform="matrix(1.2501623,0,0,-1.2501623,-75.655411,-101.80057)">
      <g
         id="g4280">
        <g
           transform="scale(0.1,0.1)"
           id="g4282">
          <path
             inkscape:connector-curvature="0"
             id="path4284"
             style="fill:#126fa9;fill-opacity:1;fill-rule:nonzero;stroke:none"
             d="m 0,0 2870,0 0,2200 L 0,2200 0,0 Z" />
        </g>
        <g
           transform="scale(0.1,0.1)"
           id="g4286">
          <g
             transform="translate(609.93,486.461)"
             id="g4288">
            <path
               inkscape:connector-curvature="0"
               id="path4290"
               style="fill:#fcffff;fill-opacity:1;fill-rule:nonzero;stroke:none"
               d="m 0,0 c -59.707,0 -97.942,48.18 -97.942,109.98 0,61.278 40.328,109.989 97.942,109.989 57.09,0 97.941,-49.231 97.941,-109.989 C 97.941,48.711 58.136,0 0,0 Z m 200.07,109.98 c 0,52.899 -19.902,101.61 -58.137,138.797 -37.707,36.66 -89.558,57.614 -141.933,57.614 -52.375,0 -103.703,-20.954 -141.41,-57.614 -38.235,-37.187 -58.661,-85.367 -58.661,-138.797 0,-60.23 25.664,-113.652 72.801,-151.363 36.137,-28.797 81.703,-45.039 127.27,-45.039 52.375,0 103.703,20.43 141.933,57.609 37.711,36.661 58.137,85.372 58.137,138.793 z m 38.594,188.028 0,-159.219 c 0,-15.191 0,-20.34 0,-33.961 0,-58.66 2.617,-102.648 32.472,-136.699 26.711,-30.899 70.704,-54.551 134.074,-54.551 118.89,0 166.55,57.699 166.55,170.832 0,35.09 0,47.051 0,54.379 l 0,159.219 -101.6,0 0,-156.598 c 0,-7.859 0,-15.711 0,-23.051 0,-56.16 -2.62,-118.89 -64.95,-118.89 -52.894,0 -64.941,37.8 -64.941,104.308 0,26.711 0,32.91 0,37.633 l 0,156.598 -101.605,0 z M 726.11,120.98 l 0,98.469 20.43,0 c 42.42,0 61.8,-12.57 61.8,-51.851 0,-33 -20.43,-46.618 -63.37,-46.618 l -18.86,0 z m -95.84,-197.453 95.84,0 0,146.653 85.89,-146.653 115.23,0 -102.13,150.84 c 54.47,11.524 83.8,48.711 83.8,106.844 0,38.758 -14.67,70.707 -41.9,91.656 -31.95,24.613 -71.76,25.141 -123.61,25.141 -2.09,0 -4.19,0 -6.28,0 l -106.84,0 0,-374.481 z m 331.17,0 98.47,0 0,184.883 c 0,19.899 -2.1,44.52 -5.76,73.848 18.33,-39.278 30.37,-60.75 34.04,-65.469 l 141.41,-193.262 97.94,0 0,374.481 -97.94,0 0,-184.879 c 0,-19.91 2.1,-44.52 5.76,-73.852 -18.33,39.282 -30.38,61.282 -34.04,65.992 l -141.41,192.739 -98.47,0 0,-374.481 z m 404.01,0 101.61,0 19.38,67.043 145.08,0 18.85,-67.043 101.61,0 -129.37,374.481 -127.79,0 -129.37,-374.481 z m 142.99,139.844 37.71,123.598 c 1.57,5.769 6.28,22.531 13.09,50.281 6.81,-27.75 11,-44.512 12.57,-50.281 l 38.23,-123.598 -101.6,0 z m 280.92,-139.844 255.85,0 0,87.473 -153.72,0 0,287.008 -102.13,0 0,-374.481" />
          </g>
        </g>
        <g
           transform="scale(0.1,0.1)"
           id="g4292">
          <g
             transform="translate(363.848,785.559)"
             id="g4294">
            <path
               inkscape:connector-curvature="0"
               id="path4296"
               style="fill:#fcffff;fill-opacity:1;fill-rule:nonzero;stroke:none"
               d="m 0,0 -98.957,0 0,-306.7 c 0,-55.308 -3.477,-63.66 -10.418,-74.281 -11.575,-19.547 -31.828,-18.976 -46.875,-18.976 -5.789,0 -8.684,0.558 -12.735,1.679 l 0,-92.851 c 29.516,-2.801 66.551,-1.68 95.489,9.5 C 0,-453.137 0,-371.559 0,-324.071 L 0,0" />
          </g>
        </g>
        <g
           transform="scale(0.1,0.1)"
           id="g4298">
          <g
             transform="translate(265.277,899.762)"
             id="g4300">
            <path
               inkscape:connector-curvature="0"
               id="path4302"
               style="fill:#fcffff;fill-opacity:1;fill-rule:nonzero;stroke:none"
               d="m 0,0 98.465,0 0,184.878 c 0,19.9 -2.094,44.52 -5.762,73.85 18.333,-39.29 30.375,-60.76 34.043,-65.47 L 268.157,0 l 97.941,0 0,374.468 -97.941,0 0,-184.88 c 0,-19.9 2.093,-44.52 5.761,-73.85 -18.332,39.28 -30.375,61.28 -34.043,66 L 98.465,374.468 0,374.468 0,0 Z m 426.793,0 247.379,0 0,83.797 -147.867,0 0,63.371 140.531,0 0,80.13 -140.531,0 0,64.95 147.867,0 0,82.22 -247.379,0 0,-374.468 z m 580.02,374.468 -82.23,0 -47.13,-179.12 c -4.72,-17.8 -9.43,-36.66 -13.1,-56.04 -3.14,18.33 -6.81,37.19 -11.52,56.04 l -42.95,179.12 -103.176,0 L 812.503,0 l 94.8,0 45.56,159.738 c 4.19,14.14 7.86,30.9 12.57,50.28 5.77,-24.09 9.96,-40.85 12.57,-50.28 L 1024.093,0 l 94.8,0 105.8,374.468 -103.18,0 -43.99,-178.07 c -3.15,-13.09 -6.81,-31.42 -11.53,-54.99 -0.52,2.62 -3.14,21.47 -12.04,54.99 l -47.14,178.07" />
          </g>
        </g>
        <g
           transform="scale(0.1,0.1)"
           id="g4304">
          <g
             transform="translate(1522.54,1020.74)"
             id="g4306">
            <path
               inkscape:connector-curvature="0"
               id="path4308"
               style="fill:#fcffff;fill-opacity:1;fill-rule:nonzero;stroke:none"
               d="m 0,0 -49.58,-75.939 c 43.38,-38.242 86.2,-55 143.1,-55 94.65,0 154.37,53.949 154.37,131.989 0,69.13 -39.44,93.75 -110.99,111.56 -36.62,8.9 -73.22,14.66 -73.22,41.37 0,17.81 26.46,31.42 53.5,31.42 24.79,0 51.83,-9.95 77.18,-29.85 l 34.37,73.33 c -34.93,22.52 -74.37,33.52 -119.44,33.52 -84.5,0 -139.15,-51.85 -139.15,-121.51 0,-58.66 35.49,-85.9 108.17,-103.7 45.63,-11 76.59,-19.91 76.59,-49.76 0,-21.998 -28.71,-38.76 -59.13,-38.76 C 63.66,-51.33 32.11,-34.041 0,0" />
          </g>
        </g>
        <g
           transform="scale(0.1,0.1)"
           id="g4310">
          <g
             transform="translate(366.531,1380.09)"
             id="g4312">
            <path
               inkscape:connector-curvature="0"
               id="path4314"
               style="fill:#fcffff;fill-opacity:1;fill-rule:nonzero;stroke:none"
               d="m 0,0 102.129,0 0,285.97 101.778,0 0,88.51 -305.161,0 0,-88.51 L 0,285.97 0,0 Z m 238.278,0 102.132,0 0,152.41 136.172,0 0,-152.41 102.129,0 0,374.48 -102.129,0 0,-145.6 -136.172,0 0,145.6 -102.132,0 0,-374.48 z m 400.921,0 229.4,0 0,83.8 -129.89,0 0,63.38 122.56,0 0,80.13 -122.56,0 0,64.94 129.89,0 0,82.23 -229.4,0 0,-374.48" />
          </g>
        </g>
        <g
           transform="scale(0.1,0.1)"
           id="g4316">
          <g
             transform="translate(1074.8,259.719)"
             id="g4318">
            <path
               inkscape:connector-curvature="0"
               id="path4320"
               style="fill:#fcffff;fill-opacity:1;fill-rule:nonzero;stroke:none"
               d="m 0,0 9.48,0 0,25.98 9.92,0 c 3.35,0 6.43,0.492 9.25,1.481 2.82,0.98 5.22,2.379 7.21,4.179 1.99,1.801 3.54,3.981 4.67,6.551 1.13,2.57 1.69,5.418 1.69,8.551 0,3.16 -0.55,6.027 -1.64,8.59 -1.1,2.57 -2.64,4.75 -4.63,6.531 -1.99,1.789 -4.39,3.18 -7.21,4.18 -2.82,1 -5.93,1.508 -9.34,1.508 L 0,67.551 0,0 Z m 9.48,33.961 0,25.601 8.98,0 c 4.6,0 8.09,-1.172 10.47,-3.519 2.38,-2.352 3.57,-5.453 3.57,-9.301 0,-3.852 -1.19,-6.949 -3.57,-9.281 -2.38,-2.328 -5.87,-3.5 -10.47,-3.5 l -8.98,0 z M 51.28,0 l 6.91,17.711 29.92,0 L 95.06,0 l 10.19,0 -27.71,67.551 -8.46,0 C 68.61,66.511 67.87,64.761 66.85,62.293 65.84,59.812 64.64,56.89 63.26,53.531 61.88,50.16 60.37,46.5 58.73,42.562 57.08,38.609 55.46,34.652 53.87,30.679 50.01,21.383 45.82,11.152 41.28,0 l 10,0 z m 10.1,25.703 6.53,16.617 c 0.25,0.723 0.67,1.801 1.24,3.242 0.58,1.438 1.16,2.899 1.74,4.367 0.58,1.473 1.1,2.821 1.55,4.043 0.46,1.219 0.68,1.93 0.68,2.118 l 0.19,0 c 0,-0.188 0.24,-0.911 0.71,-2.161 0.47,-1.257 0.99,-2.636 1.57,-4.136 0.58,-1.5 1.14,-2.961 1.69,-4.371 0.55,-1.411 0.95,-2.442 1.2,-3.102 l 6.48,-16.617 -23.58,0 z M 114.5,0 l 9.49,0 0,27.531 5.31,0 L 148.84,0 159.97,0 139.3,28.472 c 5.14,0.84 9.28,2.918 12.42,6.219 3.15,3.301 4.73,7.59 4.73,12.852 0,3.316 -0.58,6.238 -1.74,8.777 -1.16,2.543 -2.75,4.621 -4.77,6.25 -2.02,1.633 -4.39,2.859 -7.12,3.711 -2.72,0.84 -5.66,1.27 -8.83,1.27 l -19.49,0 0,-67.551 z m 9.49,35.332 0,24.23 8.97,0 c 4.42,0 7.83,-1.101 10.24,-3.293 2.41,-2.187 3.62,-5.129 3.62,-8.828 0,-3.719 -1.21,-6.672 -3.62,-8.851 -2.41,-2.18 -5.82,-3.258 -10.24,-3.258 l -8.97,0 z M 183.45,0 l 9.49,0 0,59.371 19.25,0 0,8.18 -48,0 0,-8.18 19.26,0 0,-59.371 z m 103.92,1.48 c 4.36,1.903 8.09,4.449 11.17,7.66 3.09,3.211 5.46,6.93 7.12,11.161 1.66,4.218 2.49,8.718 2.49,13.48 0,4.719 -0.83,9.211 -2.49,13.449 -1.66,4.242 -4.03,7.973 -7.12,11.18 -3.08,3.211 -6.81,5.75 -11.17,7.633 -4.37,1.879 -9.28,2.82 -14.73,2.82 -5.45,0 -10.35,-0.941 -14.7,-2.82 -4.35,-1.883 -8.07,-4.422 -11.16,-7.633 -3.08,-3.207 -5.45,-6.938 -7.11,-11.18 -1.66,-4.238 -2.49,-8.73 -2.49,-13.449 0,-4.762 0.83,-9.262 2.49,-13.48 1.66,-4.231 4.03,-7.95 7.11,-11.161 3.09,-3.211 6.81,-5.757 11.16,-7.66 4.35,-1.89 9.25,-2.84 14.7,-2.84 5.45,0 10.36,0.95 14.73,2.84 z m -24.99,7.68 c -3.15,1.293 -5.88,3.101 -8.2,5.43 -2.32,2.332 -4.11,5.132 -5.38,8.41 -1.26,3.269 -1.9,6.859 -1.9,10.781 0,3.91 0.64,7.5 1.9,10.77 1.27,3.281 3.06,6.082 5.38,8.41 2.32,2.332 5.05,4.14 8.2,5.429 3.14,1.282 6.53,1.922 10.17,1.922 3.72,0 7.16,-0.64 10.31,-1.922 3.14,-1.289 5.87,-3.097 8.17,-5.429 2.3,-2.328 4.09,-5.129 5.38,-8.41 1.28,-3.27 1.92,-6.86 1.92,-10.77 0,-3.922 -0.64,-7.512 -1.92,-10.781 -1.29,-3.278 -3.08,-6.078 -5.38,-8.41 -2.3,-2.329 -5.03,-4.137 -8.17,-5.43 -3.15,-1.277 -6.59,-1.918 -10.31,-1.918 -3.64,0 -7.03,0.641 -10.17,1.918 z M 321.16,0 l 9.49,0 0,29.453 23.76,0 0,8.18 -23.76,0 0,21.738 24.56,0 0,8.18 -34.05,0 0,-67.551 z m 77.4,0 9.49,0 0,59.371 19.26,0 0,8.18 -48.01,0 0,-8.18 19.26,0 0,-59.371 z m 38.65,0 9.49,0 0,31.66 35.42,0 0,-31.66 9.53,0 0,67.551 -9.53,0 0,-27.719 -35.42,0 0,27.719 -9.49,0 0,-67.551 z m 71.4,0 37.29,0 0,8.082 -27.81,0 0,23.679 26.49,0 0,8.071 -26.49,0 0,19.64 27.25,0 0,8.079 -36.73,0 0,-67.551 z m 106.03,0.429 c 3.24,1.192 5.96,2.852 8.17,5 2.21,2.141 3.89,4.731 5.05,7.75 1.16,3.024 1.74,6.391 1.74,10.122 l 0,44.25 -9.63,0 0,-41.379 c 0,-5.891 -1.3,-10.52 -3.9,-13.879 -2.6,-3.371 -6.75,-5.051 -12.45,-5.051 -5.63,0 -9.75,1.68 -12.35,5.051 -2.6,3.359 -3.9,7.988 -3.9,13.879 l 0,41.379 -9.63,0 0,-44.25 c 0,-3.731 0.58,-7.098 1.74,-10.122 1.16,-3.019 2.83,-5.609 5,-7.75 2.18,-2.148 4.87,-3.808 8.08,-5 3.21,-1.187 6.9,-1.789 11.06,-1.789 4.11,0 7.78,0.602 11.02,1.789 z m 59.57,-0.238 c 2.79,1.039 5.15,2.469 7.07,4.301 1.93,1.828 3.42,3.988 4.47,6.48 1.04,2.489 1.57,5.219 1.57,8.2 0,3.07 -0.56,5.699 -1.67,7.91 -1.11,2.211 -2.58,4.097 -4.41,5.687 -1.84,1.582 -3.9,2.91 -6.2,3.992 -2.31,1.079 -4.65,2.102 -7.03,3.071 -1.47,0.57 -2.96,1.168 -4.48,1.808 -1.52,0.641 -2.87,1.403 -4.04,2.282 -1.17,0.879 -2.15,1.918 -2.94,3.121 -0.78,1.207 -1.17,2.687 -1.17,4.437 0,2.883 0.99,5.11 2.98,6.672 1.99,1.57 4.63,2.348 7.92,2.348 3.25,0 5.98,-0.699 8.17,-2.11 2.19,-1.41 3.93,-3.129 5.21,-5.168 l 6.44,5.45 c -1.94,2.879 -4.53,5.3 -7.75,7.257 -3.23,1.954 -7.25,2.934 -12.07,2.934 -3.01,0 -5.77,-0.441 -8.27,-1.344 -2.51,-0.886 -4.66,-2.117 -6.46,-3.679 -1.8,-1.571 -3.19,-3.457 -4.18,-5.688 -0.99,-2.223 -1.48,-4.68 -1.48,-7.371 0,-2.699 0.49,-5 1.48,-6.93 0.99,-1.929 2.27,-3.59 3.85,-5 1.58,-1.41 3.4,-2.621 5.45,-3.64 2.05,-1.02 4.13,-1.95 6.22,-2.801 2.07,-0.809 4.02,-1.629 5.85,-2.438 1.83,-0.812 3.42,-1.73 4.77,-2.75 1.35,-1.011 2.4,-2.23 3.17,-3.64 0.77,-1.41 1.15,-3.11 1.15,-5.121 0,-3.719 -1.27,-6.559 -3.8,-8.5 -2.54,-1.942 -5.67,-2.91 -9.4,-2.91 -2.1,0 -4.01,0.3 -5.75,0.89 -1.74,0.602 -3.3,1.399 -4.67,2.399 -1.38,1 -2.6,2.14 -3.67,3.429 -1.06,1.282 -2,2.602 -2.82,3.942 l -6.48,-5.489 c 1.1,-1.851 2.4,-3.613 3.92,-5.293 1.52,-1.668 3.25,-3.117 5.19,-4.339 1.95,-1.219 4.12,-2.188 6.53,-2.887 2.41,-0.711 5.06,-1.063 7.94,-1.063 3.48,0 6.61,0.52 9.39,1.551 z M 700.7,0 l 6.91,17.711 29.92,0 6.95,-17.711 10.19,0 -27.71,67.551 -8.45,0 c -0.47,-1.04 -1.22,-2.79 -2.24,-5.258 -1.01,-2.481 -2.21,-5.403 -3.59,-8.762 -1.38,-3.371 -2.89,-7.031 -4.53,-10.969 -1.64,-3.953 -3.27,-7.91 -4.86,-11.883 C 699.44,21.383 695.24,11.152 690.7,0 l 10,0 z m 10.1,25.703 6.53,16.617 c 0.25,0.723 0.67,1.801 1.25,3.242 0.58,1.438 1.15,2.899 1.73,4.367 0.58,1.473 1.1,2.821 1.55,4.043 0.46,1.219 0.69,1.93 0.69,2.118 l 0.18,0 c 0,-0.188 0.24,-0.911 0.71,-2.161 0.47,-1.257 0.99,-2.636 1.57,-4.136 0.58,-1.5 1.14,-2.961 1.69,-4.371 0.55,-1.411 0.95,-2.442 1.2,-3.102 l 6.48,-16.617 -23.58,0 z M 795.16,0 l 9.49,0 0,59.371 19.25,0 0,8.18 -48,0 0,-8.18 19.26,0 0,-59.371 z m 83.34,1.48 c 4.37,1.903 8.09,4.449 11.18,7.66 3.08,3.211 5.45,6.93 7.11,11.161 1.66,4.218 2.49,8.718 2.49,13.48 0,4.719 -0.83,9.211 -2.49,13.449 -1.66,4.242 -4.03,7.973 -7.11,11.18 -3.09,3.211 -6.81,5.75 -11.18,7.633 -4.37,1.879 -9.28,2.82 -14.72,2.82 -5.45,0 -10.35,-0.941 -14.71,-2.82 -4.35,-1.883 -8.07,-4.422 -11.15,-7.633 -3.09,-3.207 -5.46,-6.938 -7.12,-11.18 -1.66,-4.238 -2.49,-8.73 -2.49,-13.449 0,-4.762 0.83,-9.262 2.49,-13.48 1.66,-4.231 4.03,-7.95 7.12,-11.161 3.08,-3.211 6.8,-5.757 11.15,-7.66 4.36,-1.89 9.26,-2.84 14.71,-2.84 5.44,0 10.35,0.95 14.72,2.84 z m -24.99,7.68 c -3.14,1.293 -5.88,3.101 -8.19,5.43 -2.32,2.332 -4.11,5.132 -5.38,8.41 -1.27,3.269 -1.9,6.859 -1.9,10.781 0,3.91 0.63,7.5 1.9,10.77 1.27,3.281 3.06,6.082 5.38,8.41 2.31,2.332 5.05,4.14 8.19,5.429 3.15,1.282 6.54,1.922 10.17,1.922 3.73,0 7.16,-0.64 10.31,-1.922 3.15,-1.289 5.87,-3.097 8.17,-5.429 2.31,-2.328 4.1,-5.129 5.38,-8.41 1.29,-3.27 1.93,-6.86 1.93,-10.77 0,-3.922 -0.64,-7.512 -1.93,-10.781 -1.28,-3.278 -3.07,-6.078 -5.38,-8.41 -2.3,-2.329 -5.02,-4.137 -8.17,-5.43 -3.15,-1.277 -6.58,-1.918 -10.31,-1.918 -3.63,0 -7.02,0.641 -10.17,1.918 z M 912.29,0 931.41,0 c 5.38,0 10.28,0.761 14.68,2.261 4.4,1.5 8.15,3.7 11.25,6.602 3.1,2.887 5.51,6.438 7.25,10.637 1.74,4.191 2.61,8.953 2.61,14.281 0,5.379 -0.85,10.16 -2.54,14.32 -1.69,4.168 -4.11,7.692 -7.25,10.571 -3.15,2.879 -6.92,5.078 -11.32,6.597 -4.4,1.524 -9.3,2.282 -14.68,2.282 l -19.12,0 0,-67.551 z m 9.49,59.371 8.88,0 c 3.91,0 7.52,-0.531 10.82,-1.59 3.31,-1.07 6.13,-2.66 8.46,-4.77 2.33,-2.109 4.15,-4.781 5.47,-7.992 1.32,-3.207 1.97,-6.949 1.97,-11.238 0,-4.289 -0.65,-8.039 -1.97,-11.25 -1.32,-3.211 -3.14,-5.871 -5.47,-7.988 -2.33,-2.114 -5.15,-3.703 -8.46,-4.774 -3.3,-1.058 -6.91,-1.59 -10.82,-1.59 l -8.88,0 0,51.192 z M 981.24,0 l 6.91,17.711 29.91,0 6.96,-17.711 10.19,0 -27.71,67.551 -8.46,0 c -0.47,-1.04 -1.21,-2.79 -2.23,-5.258 -1.02,-2.481 -2.21,-5.403 -3.59,-8.762 -1.38,-3.371 -2.89,-7.031 -4.53,-10.969 -1.65,-3.953 -3.27,-7.91 -4.87,-11.883 C 979.97,21.383 975.78,11.152 971.24,0 l 10,0 z m 10.1,25.703 6.53,16.617 c 0.25,0.723 0.66,1.801 1.24,3.242 0.58,1.438 1.16,2.899 1.74,4.367 0.58,1.473 1.1,2.821 1.55,4.043 0.45,1.219 0.68,1.93 0.68,2.118 l 0.19,0 c 0,-0.188 0.23,-0.911 0.7,-2.161 0.47,-1.257 1,-2.636 1.58,-4.136 0.58,-1.5 1.14,-2.961 1.69,-4.371 0.55,-1.411 0.95,-2.442 1.2,-3.102 l 6.48,-16.617 -23.58,0 z M 1053.48,0 l 9.91,0 0,27.531 23.01,40.02 -10.38,0 L 1063.39,45 c -0.13,-0.25 -0.45,-0.84 -0.97,-1.758 -0.51,-0.922 -1.04,-1.922 -1.57,-2.981 -0.53,-1.07 -1.03,-2.082 -1.48,-3.031 -0.45,-0.961 -0.71,-1.558 -0.77,-1.808 l -0.1,0 c -0.06,0.25 -0.32,0.847 -0.77,1.808 -0.46,0.949 -0.96,1.961 -1.51,3.031 -0.54,1.059 -1.08,2.059 -1.59,2.981 -0.52,0.918 -0.84,1.508 -0.97,1.758 l -12.49,22.551 -10.66,0 22.97,-40.02 0,-27.531 z m 61.1,0 9.21,0 0,41.672 c 0,0.429 0,1.187 0,2.25 0,1.058 -0.02,2.148 -0.05,3.269 -0.03,1.11 -0.06,2.149 -0.09,3.121 -0.04,0.969 -0.05,1.578 -0.05,1.828 l 0.09,0.09 c 0.13,-0.25 0.5,-0.769 1.11,-1.57 0.61,-0.801 1.26,-1.649 1.97,-2.559 0.7,-0.91 1.39,-1.781 2.07,-2.609 0.67,-0.832 1.18,-1.402 1.52,-1.711 L 1168.64,0 l 7.38,0 0,67.551 -9.21,0 0,-41.668 c 0,-0.43 0,-1.192 0,-2.25 0,-1.063 0,-2.161 0,-3.293 0,-1.129 0.02,-2.168 0.05,-3.118 0.03,-0.961 0.07,-1.562 0.14,-1.812 l -0.19,-0.09 c -0.13,0.25 -0.49,0.77 -1.1,1.57 -0.61,0.801 -1.27,1.641 -1.98,2.539 -0.7,0.891 -1.41,1.762 -2.11,2.602 -0.7,0.852 -1.2,1.43 -1.48,1.738 l -38.28,43.782 -7.28,0 0,-67.551 z m 78.3,0 37.29,0 0,8.082 -27.81,0 0,23.679 26.49,0 0,8.071 -26.49,0 0,19.64 27.25,0 0,8.079 -36.73,0 0,-67.551 z m 67.25,0 9.49,0 0,59.371 19.26,0 0,8.18 -48.01,0 0,-8.18 19.26,0 0,-59.371 z m 60.4,0 7.32,0 15.46,42.14 c 0.12,0.371 0.36,1.082 0.72,2.11 0.36,1.031 0.73,2.14 1.11,3.332 0.37,1.187 0.73,2.308 1.05,3.359 0.33,1.051 0.5,1.762 0.5,2.141 l 0.19,0 c 0,-0.379 0.16,-1.09 0.49,-2.141 0.33,-1.051 0.66,-2.172 1.01,-3.359 0.34,-1.192 0.7,-2.301 1.06,-3.332 0.36,-1.028 0.6,-1.739 0.72,-2.11 L 1365.71,0 l 7.33,0 23.76,67.551 -9.72,0 -13.76,-40.122 c -0.13,-0.398 -0.39,-1.25 -0.8,-2.527 -0.41,-1.293 -0.84,-2.652 -1.29,-4.09 -0.45,-1.441 -0.86,-2.793 -1.22,-4.043 -0.36,-1.25 -0.57,-2.058 -0.64,-2.437 l -0.18,0 c 0,0.379 -0.19,1.187 -0.57,2.437 -0.37,1.25 -0.79,2.602 -1.24,4.043 -0.46,1.438 -0.91,2.797 -1.36,4.09 -0.46,1.277 -0.75,2.129 -0.87,2.527 l -14.42,40.122 -7.61,0 -14.42,-40.122 c -0.13,-0.398 -0.42,-1.25 -0.87,-2.527 -0.45,-1.293 -0.9,-2.652 -1.34,-4.09 -0.44,-1.441 -0.85,-2.793 -1.24,-4.043 -0.4,-1.25 -0.59,-2.058 -0.59,-2.437 l -0.19,0 c 0,0.379 -0.19,1.187 -0.59,2.437 -0.39,1.25 -0.79,2.602 -1.19,4.043 -0.41,1.438 -0.83,2.797 -1.25,4.09 -0.42,1.277 -0.69,2.129 -0.82,2.527 l -13.86,40.122 -10.09,0 L 1320.53,0 Z m 131.06,1.48 c 4.37,1.903 8.1,4.449 11.18,7.66 3.08,3.211 5.46,6.93 7.12,11.161 1.66,4.218 2.49,8.718 2.49,13.48 0,4.719 -0.83,9.211 -2.49,13.449 -1.66,4.242 -4.04,7.973 -7.12,11.18 -3.08,3.211 -6.81,5.75 -11.18,7.633 -4.37,1.879 -9.27,2.82 -14.72,2.82 -5.45,0 -10.35,-0.941 -14.7,-2.82 -4.36,-1.883 -8.08,-4.422 -11.16,-7.633 -3.08,-3.207 -5.46,-6.938 -7.12,-11.18 -1.66,-4.238 -2.49,-8.73 -2.49,-13.449 0,-4.762 0.83,-9.262 2.49,-13.48 1.66,-4.231 4.04,-7.95 7.12,-11.161 3.08,-3.211 6.8,-5.757 11.16,-7.66 4.35,-1.89 9.25,-2.84 14.7,-2.84 5.45,0 10.35,0.95 14.72,2.84 z m -24.99,7.68 c -3.14,1.293 -5.88,3.101 -8.19,5.43 -2.32,2.332 -4.11,5.132 -5.38,8.41 -1.27,3.269 -1.9,6.859 -1.9,10.781 0,3.91 0.63,7.5 1.9,10.77 1.27,3.281 3.06,6.082 5.38,8.41 2.31,2.332 5.05,4.14 8.19,5.429 3.15,1.282 6.54,1.922 10.17,1.922 3.73,0 7.17,-0.64 10.31,-1.922 3.15,-1.289 5.87,-3.097 8.18,-5.429 2.3,-2.328 4.09,-5.129 5.37,-8.41 1.29,-3.27 1.93,-6.86 1.93,-10.77 0,-3.922 -0.64,-7.512 -1.93,-10.781 -1.28,-3.278 -3.07,-6.078 -5.37,-8.41 -2.31,-2.329 -5.03,-4.137 -8.18,-5.43 -3.14,-1.277 -6.58,-1.918 -10.31,-1.918 -3.63,0 -7.02,0.641 -10.17,1.918 z m 58.78,-9.16 9.49,0 0,27.531 5.31,0 19.54,-27.531 11.13,0 -20.67,28.472 c 5.14,0.84 9.28,2.918 12.43,6.219 3.14,3.301 4.72,7.59 4.72,12.852 0,3.316 -0.58,6.238 -1.74,8.777 -1.16,2.543 -2.75,4.621 -4.77,6.25 -2.02,1.633 -4.39,2.859 -7.11,3.711 -2.73,0.84 -5.67,1.27 -8.83,1.27 l -19.5,0 0,-67.551 z m 9.49,35.332 0,24.23 8.97,0 c 4.42,0 7.83,-1.101 10.24,-3.293 2.41,-2.187 3.62,-5.129 3.62,-8.828 0,-3.719 -1.21,-6.672 -3.62,-8.851 -2.41,-2.18 -5.82,-3.258 -10.24,-3.258 l -8.97,0 z M 1543.29,0 l 9.49,0 0,34.152 28.89,-34.152 11.93,0 -30.3,35.332 28.93,32.219 -11.55,0 -27.9,-31.379 0,31.379 -9.49,0 0,-67.551" />
          </g>
        </g>
      </g>
    </g>
    <g
       transform="matrix(465.95609,0,0,-304.5024,-9.0533711,1381.9942)"
       id="g4344" />
    <g
       transform="matrix(620.54149,0,0,-510.08512,248.91669,106.87533)"
       id="g4624" />
  </g>
</svg>
